<svg width="30" height="30" viewBox="0 0 30 30" fill="none" xmlns="http://www.w3.org/2000/svg">
<path d="M29.5489 5.32331L15.1128 0C15.0677 0 14.9774 0 14.9323 0L0.406007 5.2782C0.315781 5.32331 0.225555 5.41353 0.225555 5.54887L0.270668 23.8195C0.270668 23.9549 0.360894 24.0451 0.451119 24.0902L14.4361 29.6842V29.7293C14.4361 29.8195 14.4812 29.9098 14.5714 29.9549C14.6616 30 14.7519 30 14.8421 30L15.0225 29.9098L15.203 30C15.2481 30 15.2932 30 15.2932 30C15.3383 30 15.3835 30 15.4286 29.9549C15.5188 29.9098 15.5639 29.8195 15.5639 29.7293V29.6842L29.5489 24.0902C29.6391 24.0451 29.7293 23.9549 29.7293 23.8195V5.54887C29.7293 5.45865 29.6842 5.36842 29.5489 5.32331ZM14.4361 28.4662L1.35337 23.2331V6.76692L14.4361 12V28.4662ZM15.0225 11.0075L2.16541 5.90977L15.0225 1.17293L27.9699 5.86466L15.0225 11.0075ZM28.6466 23.2782L15.5639 28.5113V12L28.6466 6.76692V23.2782ZM6.54135 17.1429C6.54135 16.3759 7.17292 16.015 7.89473 16.2857C8.66165 16.6015 9.24811 17.4586 9.24811 18.2256C9.24811 18.9925 8.61653 19.3534 7.89473 19.0827C7.12781 18.7669 6.54135 17.9098 6.54135 17.1429ZM2.70676 11.4586C2.70676 10.6917 3.33834 10.3308 4.06014 10.6015C4.82706 10.9173 5.41353 11.7744 5.41353 12.5414C5.41353 13.3083 4.78195 13.6692 4.06014 13.3985C3.29322 13.0827 2.70676 12.2256 2.70676 11.4586ZM10.3759 14.4812C10.3759 13.7143 11.0075 13.3534 11.7293 13.6241C12.4511 13.8947 13.0827 14.797 13.0827 15.5639C13.0827 16.3308 12.4511 16.6917 11.7293 16.4211C10.9624 16.1053 10.3759 15.2481 10.3759 14.4812ZM2.70676 19.4436C2.70676 18.6767 3.33834 18.3158 4.06014 18.5865C4.82706 18.9023 5.41353 19.7594 5.41353 20.5263C5.41353 21.2932 4.78195 21.6541 4.06014 21.3835C3.29322 21.0677 2.70676 20.2105 2.70676 19.4436ZM10.3759 22.5113C10.3759 21.7444 11.0075 21.3835 11.7293 21.6541C12.4511 21.9248 13.0827 22.8271 13.0827 23.594C13.0827 24.3609 12.4511 24.7218 11.7293 24.4511C10.9624 24.1353 10.3759 23.2331 10.3759 22.5113ZM12.5413 5.72932C12.1804 6.27068 11.0977 6.67669 10.0601 6.58647C9.02255 6.49624 8.48119 6 8.8421 5.45865C9.203 4.91729 10.2857 4.51128 11.3233 4.6015C12.3609 4.69173 12.9022 5.18797 12.5413 5.72932ZM19.8045 6.27068C19.4436 6.81203 18.3609 7.21805 17.3233 7.12782C16.2857 7.03759 15.7444 6.54135 16.1053 6C16.4662 5.45865 17.5489 5.05263 18.5865 5.14286C19.6241 5.23308 20.1654 5.72932 19.8045 6.27068ZM21.203 19.0827C20.7519 18.4962 20.8421 17.4135 21.4737 16.6466C22.1053 15.8797 22.9624 15.6992 23.4586 16.2857C23.9098 16.8722 23.8195 17.9549 23.188 18.7218C22.5564 19.4887 21.6992 19.6692 21.203 19.0827Z" fill="#1665DF"/>
</svg>
