<?xml version="1.0" encoding="utf-8"?>
<!-- Generator: Adobe Illustrator 22.1.0, SVG Export Plug-In . SVG Version: 6.00 Build 0)  -->
<svg version="1.1" id="Layer_1" xmlns="http://www.w3.org/2000/svg" xmlns:xlink="http://www.w3.org/1999/xlink" x="0px" y="0px"
	 viewBox="0 0 30 30" style="enable-background:new 0 0 30 30;" xml:space="preserve">
<style type="text/css">
	.st0{clip-path:url(#SVGID_2_);}
	.st1{fill:#909090;}
</style>
<g>
	<defs>
		<rect id="SVGID_1_" y="0" width="30" height="30"/>
	</defs>
	<clipPath id="SVGID_2_">
		<use xlink:href="#SVGID_1_"  style="overflow:visible;"/>
	</clipPath>
	<g class="st0">
		<path class="st1" d="M16.2,7.5c0,0.7-0.6,1.2-1.2,1.2c-0.7,0-1.2-0.6-1.2-1.2c0-0.7,0.6-1.2,1.2-1.2C15.7,6.3,16.2,6.8,16.2,7.5z"
			/>
		<path class="st1" d="M15,23.7c-0.5,0-0.9-0.4-0.9-0.9v-9.7h-1.2c-0.5,0-0.9-0.4-0.9-0.9s0.4-0.9,0.9-0.9H15c0.5,0,0.9,0.4,0.9,0.9
			v10.6C15.9,23.3,15.5,23.7,15,23.7z"/>
		<path class="st1" d="M15,30C6.7,30,0,23.3,0,15C0,6.7,6.7,0,15,0c8.3,0,15,6.7,15,15C30,23.3,23.3,30,15,30z M15,1.9
			C7.8,1.9,1.9,7.8,1.9,15c0,7.2,5.9,13.1,13.1,13.1c7.2,0,13.1-5.9,13.1-13.1C28.1,7.8,22.2,1.9,15,1.9z"/>
		<path class="st1" d="M17.8,23.7h-5.6c-0.5,0-0.9-0.4-0.9-0.9c0-0.5,0.4-0.9,0.9-0.9h5.6c0.5,0,0.9,0.4,0.9,0.9
			C18.8,23.3,18.3,23.7,17.8,23.7z"/>
	</g>
</g>
</svg>
