<svg width="93" height="93" viewBox="0 0 93 93" fill="none" xmlns="http://www.w3.org/2000/svg">
<g clip-path="url(#clip0)">
<path d="M92.1407 45.9797C92.1407 71.4759 71.4767 92.1397 45.9802 92.1397C20.4837 92.1397 -0.180313 71.4759 -0.180313 45.9797C-0.180313 20.4835 20.4837 -0.180298 45.9802 -0.180298C71.4767 -0.180298 92.1407 20.4835 92.1407 45.9797Z" fill="#1665DF"/>
<path d="M41.7428 77.4622H50.2176V88.4793H41.7428V77.4622Z" fill="#3B3B3B"/>
<path d="M90.6621 15.4528V57.5918C89.7786 61.0177 88.4983 64.2994 86.8935 67.3647C85.3969 70.2317 83.5938 72.9184 81.5562 75.3886C80.4563 76.7049 79.3023 77.9671 78.0762 79.1572H13.8842C12.6581 77.9671 11.486 76.7049 10.4041 75.3886C8.36657 72.9184 6.56343 70.2317 5.06682 67.3647C3.46202 64.2994 2.18179 61.0177 1.29824 57.5918V15.4528C1.29824 13.6496 2.75879 12.1891 4.56194 12.1891H87.3984C89.2016 12.1891 90.6621 13.6496 90.6621 15.4528Z" fill="#4A4A4A"/>
<path d="M86.8936 15.9577V67.3647C85.397 70.2317 83.5938 72.9184 81.5563 75.3887H10.4041C8.36659 72.9184 6.56345 70.2317 5.06684 67.3647V15.9577H86.8936Z" fill="#FFD861"/>
<path d="M67.2393 86.9647C60.8742 90.2644 53.6436 92.1397 45.9802 92.1397C38.3169 92.1397 31.0862 90.2644 24.7211 86.9647C29.8601 85.991 37.4694 85.378 45.9802 85.378C54.4911 85.378 62.1003 85.991 67.2393 86.9647Z" fill="#4A4A4A"/>
<path d="M5.37339 29.5713L64.6428 -0.180298L69.4932 9.46642L10.2058 39.218L5.37339 29.5713Z" fill="#3B3B3B"/>
<path d="M86.5871 60.9997L40.8052 75.3886H21.5837L12.1352 45.3125L75.4076 25.4241L86.5871 60.9997Z" fill="#3B3B3B"/>
<path d="M46.7195 8.81729L56.4385 3.94885L67.059 10.6925L57.3401 15.579L46.7195 8.81729Z" fill="#EFEFEF"/>
<path d="M27.2636 18.5902L36.9825 13.7038L47.6031 20.4474L37.8841 25.3339L27.2636 18.5902Z" fill="#EFEFEF"/>
<path d="M7.80764 28.3632L17.5266 23.4767L28.1471 30.2204L18.4282 35.1069L7.80764 28.3632Z" fill="#EFEFEF"/>
<path d="M10.2239 39.236L73.4962 19.3475L76.7419 29.6434L13.4515 49.5319L10.2239 39.236Z" fill="#EFEFEF"/>
<path d="M57.5925 35.6658L67.9786 32.4022L70.8997 20.159L60.5136 23.4226L57.5925 35.6658Z" fill="#3B3B3B"/>
<path d="M36.8202 42.1931L47.2063 38.9295L50.1274 26.6862L39.7413 29.9499L36.8202 42.1931Z" fill="#3B3B3B"/>
<path d="M16.048 48.7204L26.4341 45.4568L29.3552 33.2136L18.9691 36.4772L16.048 48.7204Z" fill="#3B3B3B"/>
<path d="M21.8902 55.969L50.2897 47.0435L51.3175 50.2892L22.918 59.2146L21.8902 55.969Z" fill="#EFEFEF"/>
<path d="M24.5047 64.2453L66.536 51.0465L67.5638 54.2921L25.5325 67.491L24.5047 64.2453Z" fill="#EFEFEF"/>
</g>
<defs>
<clipPath id="clip0">
<rect width="92.321" height="92.32" fill="white"/>
</clipPath>
</defs>
</svg>
