<svg width="30" height="30" viewBox="0 0 30 30" fill="none" xmlns="http://www.w3.org/2000/svg">
<g clip-path="url(#clip0)">
<path d="M16.2481 7.5C16.2481 8.19141 15.6856 8.74805 15 8.74805C14.3145 8.74805 13.752 8.18555 13.752 7.5C13.752 6.81445 14.3145 6.25195 15 6.25195C15.6856 6.25195 16.2481 6.80859 16.2481 7.5Z" fill="#E0E0E0"/>
<path d="M15.0001 23.748C14.4844 23.748 14.0626 23.3262 14.0626 22.8105V13.125H12.8145C12.2989 13.125 11.877 12.7031 11.877 12.1875C11.877 11.6719 12.2989 11.25 12.8145 11.25H15.0001C15.5157 11.25 15.9376 11.6719 15.9376 12.1875V22.8105C15.9376 23.332 15.5157 23.748 15.0001 23.748Z" fill="#E0E0E0"/>
<path d="M15 30C6.72656 30 0 23.2734 0 15C0 6.72656 6.72656 0 15 0C23.2734 0 30 6.72656 30 15C30 23.2734 23.2734 30 15 30ZM15 1.875C7.76367 1.875 1.875 7.76367 1.875 15C1.875 22.2363 7.76367 28.125 15 28.125C22.2363 28.125 28.125 22.2363 28.125 15C28.125 7.76367 22.2363 1.875 15 1.875Z" fill="#E0E0E0"/>
<path d="M17.8125 23.748H12.1875C11.6719 23.748 11.25 23.3262 11.25 22.8105C11.25 22.2949 11.6719 21.873 12.1875 21.873H17.8125C18.3281 21.873 18.75 22.2949 18.75 22.8105C18.75 23.3262 18.3281 23.748 17.8125 23.748Z" fill="#E0E0E0"/>
</g>
<defs>
<clipPath id="clip0">
<rect width="30" height="30" fill="white"/>
</clipPath>
</defs>
</svg>
